<?xml version="1.0" encoding="UTF-8" standalone="no"?>
<!-- Created with Inkscape (http://www.inkscape.org/) -->

<svg
   width="210mm"
   height="297mm"
   viewBox="0 0 210 297"
   version="1.1"
   id="svg1"
   inkscape:version="1.3 (0e150ed, 2023-07-21)"
   sodipodi:docname="dibujo1.svg"
   xmlns:inkscape="http://www.inkscape.org/namespaces/inkscape"
   xmlns:sodipodi="http://sodipodi.sourceforge.net/DTD/sodipodi-0.dtd"
   xmlns:xlink="http://www.w3.org/1999/xlink"
   xmlns="http://www.w3.org/2000/svg"
   xmlns:svg="http://www.w3.org/2000/svg">
  <sodipodi:namedview
     id="namedview1"
     pagecolor="#ffffff"
     bordercolor="#666666"
     borderopacity="1.0"
     inkscape:showpageshadow="2"
     inkscape:pageopacity="0.0"
     inkscape:pagecheckerboard="0"
     inkscape:deskcolor="#d1d1d1"
     inkscape:document-units="mm"
     inkscape:zoom="1.0280428"
     inkscape:cx="395.41156"
     inkscape:cy="483.44291"
     inkscape:window-width="933"
     inkscape:window-height="1016"
     inkscape:window-x="26"
     inkscape:window-y="23"
     inkscape:window-maximized="0"
     inkscape:current-layer="layer1" />
  <defs
     id="defs1">
    <linearGradient
       id="swatch17"
       inkscape:swatch="solid">
      <stop
         style="stop-color:#000000;stop-opacity:1;"
         offset="0"
         id="stop17" />
    </linearGradient>
    <linearGradient
       inkscape:collect="always"
       xlink:href="#swatch17"
       id="linearGradient17"
       x1="49.010056"
       y1="130.80054"
       x2="173.2662"
       y2="130.80054"
       gradientUnits="userSpaceOnUse" />
  </defs>
  <g
     inkscape:label="Capa 1"
     inkscape:groupmode="layer"
     id="layer1">
    <rect
       id="rect1"
       width="124.25615"
       height="117.2625"
       x="49.010056"
       y="72.169296"
       style="fill:#c83771;stroke-width:0.268688;stroke:url(#linearGradient17)" />
    <rect
       style="fill:#c83771;stroke-width:0.765;stroke-dasharray:none"
       id="rect2"
       width="30.961668"
       height="33.23222"
       x="19.011776"
       y="98.313286" />
    <rect
       style="fill:#c83771;stroke-width:0.264583"
       id="rect2-5"
       width="30.961668"
       height="33.23222"
       x="172.40335"
       y="98.4963" />
    <ellipse
       style="fill:#ffffff;stroke-width:0.20594"
       id="path3"
       cx="81.080139"
       cy="100.16879"
       rx="19.594704"
       ry="18.195786" />
    <ellipse
       style="fill:#ffffff;stroke-width:0.207509"
       id="path3-2"
       cx="136.14514"
       cy="100.30379"
       rx="19.905352"
       ry="18.185732" />
    <ellipse
       style="fill:#280b0b;stroke-width:0.264583"
       id="path4-7"
       cx="140.09364"
       cy="106.52007"
       rx="12.379976"
       ry="10.889971" />
    <ellipse
       style="fill:#280b0b;stroke-width:0.264583"
       id="path4-7-5"
       cx="75.705833"
       cy="104.7278"
       rx="12.379976"
       ry="10.889971" />
    <rect
       style="fill:#ffffff;stroke-width:0.252484"
       id="rect4"
       width="78.465515"
       height="24.002506"
       x="71.447716"
       y="152.77238" />
    <rect
       style="fill:#241c1c;stroke-width:0.0500806"
       id="rect5"
       width="1.1701055"
       height="23.428753"
       x="80.56366"
       y="152.9653"
       transform="matrix(1,0,0.01115669,0.99993776,0,0)" />
    <rect
       style="fill:#241c1c;stroke-width:0.0517358"
       id="rect5-6"
       width="1.1701055"
       height="25.003017"
       x="69.337433"
       y="152.3502"
       transform="matrix(1,0,0.01045423,0.99994535,0,0)" />
    <rect
       style="fill:#241c1c;stroke-width:0.0897733"
       id="rect5-4"
       width="1.1226782"
       height="78.464828"
       x="-152.84976"
       y="-149.93721"
       transform="matrix(0,-1,-0.99999489,-0.00319624,0,0)" />
    <rect
       style="fill:#241c1c;stroke-width:0.0897733"
       id="rect5-4-0"
       width="1.1226782"
       height="78.464828"
       x="-176.81842"
       y="-150.37259"
       transform="matrix(0,-1,-0.99999489,-0.00319624,0,0)" />
    <rect
       style="fill:#241c1c;stroke-width:0.0501064"
       id="rect5-61"
       width="1.1701055"
       height="23.452879"
       x="91.916718"
       y="152.78072"
       transform="matrix(1,0,0.01114521,0.99993789,0,0)" />
    <rect
       style="fill:#241c1c;stroke-width:0.0517358"
       id="rect5-2"
       width="1.1701055"
       height="25.003017"
       x="103.22945"
       y="152.28955"
       transform="matrix(1,0,0.01045423,0.99994535,0,0)" />
    <rect
       style="fill:#241c1c;stroke-width:0.0502939"
       id="rect5-7"
       width="1.1701055"
       height="23.628801"
       x="115.42625"
       y="153.1319"
       transform="matrix(1,0,0.01106224,0.99993881,0,0)" />
    <rect
       style="fill:#241c1c;stroke-width:0.0517358"
       id="rect5-28"
       width="1.1701055"
       height="25.003017"
       x="127.28328"
       y="152.40823"
       transform="matrix(1,0,0.01045423,0.99994535,0,0)" />
    <rect
       style="fill:#241c1c;stroke-width:0.0517358"
       id="rect5-612"
       width="1.1701055"
       height="25.003017"
       x="137.6823"
       y="152.40683"
       transform="matrix(1,0,0.01045423,0.99994535,0,0)" />
    <rect
       style="fill:#241c1c;stroke-width:0.0517358"
       id="rect5-9"
       width="1.1701055"
       height="25.003017"
       x="147.6982"
       y="152.2114"
       transform="matrix(1,0,0.01045423,0.99994535,0,0)" />
    <path
       sodipodi:type="star"
       style="fill:#003380;stroke-width:0.264583"
       id="path6"
       inkscape:flatsided="false"
       sodipodi:sides="5"
       sodipodi:cx="59.798401"
       sodipodi:cy="122.11316"
       sodipodi:r1="22.551401"
       sodipodi:r2="11.2757"
       sodipodi:arg1="0.32449954"
       sodipodi:arg2="0.95281807"
       inkscape:rounded="0"
       inkscape:randomized="0"
       d="m 81.172854,129.30332 -14.841442,2.00012 -6.766195,13.35991 -6.488476,-13.49698 -14.796908,-2.30659 10.831342,-10.3417 -2.378797,-14.78547 13.182615,7.10545 13.32673,-6.83133 -2.684039,14.73312 z"
       inkscape:transform-center-x="0.058468136"
       inkscape:transform-center-y="1.5272768"
       transform="matrix(0.81139261,0,0,0.73257023,60.460455,40.993529)" />
  </g>
</svg>
