<?xml version="1.0" encoding="UTF-8" standalone="no"?>
<!-- Created with Inkscape (http://www.inkscape.org/) -->

<svg
   width="210mm"
   height="297mm"
   viewBox="0 0 210 297"
   version="1.1"
   id="svg12782"
   inkscape:version="1.1.2 (0a00cf5339, 2022-02-04)"
   sodipodi:docname="dibujo3.svg"
   xmlns:inkscape="http://www.inkscape.org/namespaces/inkscape"
   xmlns:sodipodi="http://sodipodi.sourceforge.net/DTD/sodipodi-0.dtd"
   xmlns="http://www.w3.org/2000/svg"
   xmlns:svg="http://www.w3.org/2000/svg">
  <sodipodi:namedview
     id="namedview12784"
     pagecolor="#ffffff"
     bordercolor="#666666"
     borderopacity="1.0"
     inkscape:pageshadow="2"
     inkscape:pageopacity="0.0"
     inkscape:pagecheckerboard="0"
     inkscape:document-units="mm"
     showgrid="false"
     inkscape:zoom="0.98520767"
     inkscape:cx="395.34812"
     inkscape:cy="547.60028"
     inkscape:window-width="1866"
     inkscape:window-height="1016"
     inkscape:window-x="0"
     inkscape:window-y="0"
     inkscape:window-maximized="1"
     inkscape:current-layer="layer1" />
  <defs
     id="defs12779" />
  <g
     inkscape:label="Capa 1"
     inkscape:groupmode="layer"
     id="layer1">
    <path
       style="fill:none;stroke:#000000;stroke-width:0.272437px;stroke-linecap:butt;stroke-linejoin:miter;stroke-opacity:1"
       d="m 116.20107,133.7341 h 28.20575 v 1.09322 L 156.8699,111.94 135.38679,89.162504 114.84953,110.93715 Z"
       id="path13157" />
    <path
       style="fill:none;stroke:#000000;stroke-width:0.272437px;stroke-linecap:butt;stroke-linejoin:miter;stroke-opacity:1"
       d="m 116.30789,143.10739 28.53955,0.46403 -15.96031,26.13006 z"
       id="path13159" />
    <path
       style="fill:none;stroke:#000000;stroke-width:0.272437px;stroke-linecap:butt;stroke-linejoin:miter;stroke-opacity:1"
       d="m 152.02943,135.55717 10.52597,-17.71943 18.20347,14.1488 z"
       id="path13161" />
    <path
       style="fill:none;stroke:#000000;stroke-width:0.272437px;stroke-linecap:butt;stroke-linejoin:miter;stroke-opacity:1"
       d="M 162.27055,104.44396 144.04779,85.412684 169.58013,69.404635 Z"
       id="path13163" />
    <path
       style="fill:none;stroke:#000000;stroke-width:0.272437px;stroke-linecap:butt;stroke-linejoin:miter;stroke-opacity:1"
       d="M 112.17761,101.23354 127.27448,84.530254 104.14257,70.125055 Z"
       id="path13165" />
    <path
       style="fill:none;stroke:#000000;stroke-width:0.272437px;stroke-linecap:butt;stroke-linejoin:miter;stroke-opacity:1"
       d="m 105.71367,114.66822 1.37083,19.02657 -24.32916,-10.8047 z"
       id="path13167" />
    <path
       style="fill:none;stroke:#000000;stroke-width:0.272437px;stroke-linecap:butt;stroke-linejoin:miter;stroke-opacity:1"
       d="m 115.89545,61.14658 19.43188,18.438274 23.68826,-17.849985 z"
       id="path13169" />
    <path
       style="fill:none;stroke:#000000;stroke-width:0.272437px;stroke-linecap:butt;stroke-linejoin:miter;stroke-opacity:1"
       d="m 168.65883,111.47982 10.79598,-36.107364 3.59767,46.712284 z"
       id="path13171" />
    <path
       style="fill:none;stroke:#000000;stroke-width:0.272437px;stroke-linecap:butt;stroke-linejoin:miter;stroke-opacity:1"
       d="m 153.99665,144.87225 26.21033,-3.76724 -42.15283,28.57759 z"
       id="path13173" />
    <path
       style="fill:none;stroke:#000000;stroke-width:0.272437px;stroke-linecap:butt;stroke-linejoin:miter;stroke-opacity:1"
       d="M 105.81752,144.28711 83.51938,132.8674 114.89107,168.87567 Z"
       id="path13175" />
    <path
       style="fill:none;stroke:#000000;stroke-width:0.272437px;stroke-linecap:butt;stroke-linejoin:miter;stroke-opacity:1"
       d="M 80.834108,111.9407 103.291,105.07786 95.726241,71.509262 Z"
       id="path13177" />
    <path
       style="fill:none;stroke:#000000;stroke-width:0.264583px;stroke-linecap:butt;stroke-linejoin:miter;stroke-opacity:1"
       d="M 121.93212,182.92934 81.712386,147.78194 47.386893,159.78259 66.713435,125.53276 56.107351,86.919733"
       id="path13179" />
    <path
       style="fill:none;stroke:#000000;stroke-width:0.272437px;stroke-linecap:butt;stroke-linejoin:miter;stroke-opacity:1"
       d="M 71.193834,71.42904 105.77895,10.335153 138.58971,38.79163 173.01758,3.1514323 190.2404,81.941144"
       id="path13294" />
    <path
       style="fill:#000000;stroke:#000000;stroke-width:0.29504px;stroke-linecap:butt;stroke-linejoin:miter;stroke-opacity:1"
       d="m 59.216482,200.46944 c 0.30315,-11.02 -69.331046,-137.313971 0.90945,-160.448721 0,0 -55.6720264,-22.98075 -55.6720264,18.33106 0,41.311808 54.7625764,142.117661 54.7625764,142.117661 z"
       id="path13409"
       sodipodi:nodetypes="cczc" />
    <path
       style="fill:#d35f5f;stroke:#000000;stroke-width:1.27852"
       d="m 116.44934,132.98223 c 0.003,-0.27684 -0.27686,-5.27938 -0.62312,-11.11674 l -0.62957,-10.6134 10.11802,-10.72764 10.11803,-10.727646 10.48531,11.117066 10.48532,11.11707 -5.83284,10.72436 -5.83284,10.72436 -14.14738,0.003 c -11.06961,0.003 -14.14597,-0.10641 -14.14093,-0.50026 z"
       id="path14445" />
    <path
       style="fill:#de8787;stroke:#000000;stroke-width:1.27852"
       d="m 122.99147,156.23519 c -3.18394,-6.75588 -5.78898,-12.37325 -5.78898,-12.48303 0,-0.27465 16.19454,-0.16585 22.07328,0.1483 l 4.79259,0.2561 -7.45116,12.17926 c -4.09814,6.69859 -7.53792,12.18005 -7.64396,12.18102 -0.10603,8.5e-4 -2.79783,-5.52577 -5.98177,-12.28165 z"
       id="path14521" />
    <path
       style="fill:#de8787;stroke:#000000;stroke-width:1.27852"
       d="m 95.554148,128.17265 c -5.953294,-2.6416 -10.947246,-4.93147 -11.097672,-5.08859 -0.150427,-0.15712 4.425865,-1.9836 10.169535,-4.05885 5.743669,-2.07524 10.525609,-3.68562 10.626529,-3.57862 0.25239,0.26759 1.38977,15.4516 1.24359,16.60187 -0.11353,0.89343 -0.51099,0.75264 -10.941982,-3.87581 z"
       id="path14634" />
    <path
       style="fill:#de8787;stroke:#000000;stroke-width:1.27852"
       d="m 110.96001,95.125204 c -3.93412,-15.06789 -6.17399,-23.864739 -6.10153,-23.963049 0.0444,-0.06027 4.95991,2.929616 10.9233,6.644196 l 10.84253,6.753783 -1.94487,2.21474 c -1.06967,1.2181 -4.28101,4.79454 -7.1363,7.94766 l -5.19144,5.732926 z"
       id="path14673" />
    <path
       style="fill:#de8787;stroke:#000000;stroke-width:1.27852"
       d="m 153.32847,94.574654 c -4.63718,-4.79053 -8.38169,-8.86259 -8.32113,-9.04903 0.13267,-0.40844 23.59159,-15.184978 23.81105,-14.998347 0.22442,0.190852 -6.56904,32.747493 -6.83441,32.752863 -0.12334,0.003 -4.01832,-3.914966 -8.65551,-8.705486 z"
       id="path14712" />
    <path
       style="fill:#de8787;stroke:#000000;stroke-width:4.69289"
       d=""
       id="path14825"
       transform="scale(0.26458333)" />
    <path
       style="fill:#de8787;stroke:#000000;stroke-width:1.27852"
       d="m 153.09129,134.64726 c 0.6747,-1.27033 9.07415,-15.48518 9.3436,-15.81269 0.16105,-0.19575 4.13508,2.61293 8.83117,6.24152 4.6961,3.62859 8.42465,6.63568 8.28567,6.68243 -0.13899,0.0468 -5.46539,0.7279 -11.83645,1.51367 -6.37107,0.78578 -12.33446,1.5421 -13.25197,1.68071 -1.35532,0.20476 -1.61266,0.14743 -1.37202,-0.30564 z"
       id="path14864" />
    <path
       style="fill:#501616;stroke:#000000;stroke-width:1.27852"
       d="m 99.304675,150.44129 c -7.650474,-8.77196 -13.873197,-15.99556 -13.82827,-16.05246 0.04493,-0.0569 4.595331,2.22925 10.112004,5.08031 l 10.030321,5.18375 3.94283,10.739 c 2.16856,5.90644 3.87764,10.79736 3.79795,10.8687 -0.0797,0.0713 -6.40436,-7.04734 -14.054835,-15.8193 z"
       id="path14979" />
    <path
       style="fill:#501616;stroke:#000000;stroke-width:1.27852"
       d="m 139.99021,167.57154 c 0,-0.15476 13.82291,-21.858 14.19072,-22.28074 0.16662,-0.1915 22.84355,-3.3674 23.31182,-3.26481 0.29421,0.0644 -7.88092,5.82514 -18.16696,12.80155 -19.04568,12.91755 -19.33558,13.10862 -19.33558,12.744 z"
       id="path15018" />
    <path
       style="fill:#501616;stroke:#000000;stroke-width:1.27852"
       d="m 175.77181,116.27108 c -3.57625,-2.60232 -6.50837,-4.91269 -6.51582,-5.13416 -0.0142,-0.42216 9.73986,-33.235098 9.94385,-33.451377 0.0646,-0.0685 0.85771,9.570331 1.76244,21.419621 0.90473,11.849286 1.57,21.623636 1.47838,21.720786 -0.0916,0.0971 -3.09261,-1.95255 -6.66885,-4.55487 z"
       id="path15057" />
    <path
       style="fill:#501616;stroke:#000000;stroke-width:1.27852"
       d="m 127.64686,71.783576 c -4.17775,-3.991997 -8.32387,-7.939052 -9.2136,-8.771234 l -1.61769,-1.513058 18.89838,0.20464 c 10.39411,0.112555 19.54982,0.318098 20.34602,0.456767 l 1.44764,0.252125 -10.14414,7.650893 c -5.57927,4.20799 -10.58886,7.949501 -11.13242,8.314467 l -0.98828,0.663576 z"
       id="path15096" />
    <path
       style="fill:#501616;stroke:#000000;stroke-width:1.27852"
       d="m 81.591694,110.88138 c 0.112684,-0.3024 3.236818,-8.79466 6.942519,-18.871686 3.705698,-10.07704 6.843879,-18.448455 6.973734,-18.603156 0.129855,-0.154703 1.830935,6.791826 3.780178,15.436726 1.949245,8.64491 3.460255,15.806886 3.357795,15.915516 -0.10245,0.10862 -4.602723,1.54558 -10.000598,3.19324 -5.397876,1.64766 -10.139262,3.10451 -10.536415,3.23746 -0.512164,0.17144 -0.66253,0.0819 -0.517213,-0.3081 z"
       id="path15135" />
    <path
       style="fill:none;stroke:#000000;stroke-width:0.272437px;stroke-linecap:butt;stroke-linejoin:miter;stroke-opacity:1"
       d="m 197.92829,95.913784 -9.48746,45.501096 20.40361,10.07012 -22.51474,-2.0244 -41.46743,26.6161"
       id="path15287" />
    <path
       style="fill:#008000;stroke:#000000;stroke-width:0.877988"
       d="m 176.59114,215.55276 c -1.48321,-0.55123 -2.35577,-1.24883 -2.90209,-2.32024 -0.61171,-1.19964 -0.59276,-2.54531 0.0895,-6.35603 0.62628,-3.49808 0.54132,-4.92958 -0.37198,-6.26718 -1.35232,-1.98059 -3.72019,-2.32969 -8.19592,-1.20833 -4.01265,1.00531 -5.28374,0.99716 -6.51855,-0.0419 -1.21153,-1.01944 -2.39295,-2.97298 -2.38994,-3.95192 0.003,-0.96876 1.38552,-3.50166 2.12832,-3.8992 0.91303,-0.48864 3.20897,-0.30085 6.83119,0.55873 4.46787,1.06026 7.30871,1.15619 8.93701,0.3018 2.54648,-1.33618 3.08082,-4.23259 1.84502,-10.00085 -1.01775,-4.7505 -1.33308,-7.00737 -1.10567,-7.91346 0.23628,-0.9414 1.81209,-2.49223 3.06381,-3.01523 1.27543,-0.53291 2.40104,-0.0935 3.91991,1.53031 1.09522,1.17088 1.23348,1.45698 1.23348,2.55236 0,0.67852 -0.43573,2.94964 -0.9683,5.04693 -1.50338,5.9205 -1.35859,8.33728 0.60863,10.15907 1.72912,1.60128 4.48925,1.66592 10.16196,0.23797 6.71987,-1.69155 8.06761,-1.64472 9.5204,0.33076 1.00636,1.36844 1.43927,2.84275 1.20361,4.09895 -0.26713,1.42392 -1.64413,3.30087 -2.88673,3.93479 -1.51935,0.77512 -2.97133,0.57406 -7.90209,-1.09414 -5.96734,-2.01893 -8.61927,-1.86674 -9.91264,0.56886 -0.75973,1.43071 -0.5747,3.40029 0.69543,7.40246 1.47629,4.65177 1.62461,6.05925 0.77063,7.31284 -0.97339,1.42894 -2.62614,2.21639 -4.89073,2.33027 -1.23334,0.062 -2.27905,-0.043 -2.96426,-0.29766 z"
       id="path18252" />
    <path
       style="fill:#ececec;stroke:#000000;stroke-width:0.264583px;stroke-linecap:butt;stroke-linejoin:miter;stroke-opacity:1"
       d="m 44.175694,202.1958 c 26.076068,-3.22678 20.380621,10.95026 19.9489,-3.12515 -0.431721,-14.07542 14.165923,-9.45779 20.218172,-6.86079 6.052242,2.597 12.442758,8.23829 12.417528,10.68693 -0.0252,2.44864 -2.83585,-20.59351 11.973196,-13.13113 14.80906,7.46239 1.73801,13.95451 11.3182,13.26465 9.58019,-0.68986 10.00598,-1.89304 9.68182,9.31465 -0.32416,11.20767 -18.61665,9.45037 -5.43656,16.5975 13.18008,7.14711 -29.856966,17.7606 -32.27965,7.87259 -2.422682,-9.88803 3.392944,-12.43013 -3.730452,-8.13521 -7.123387,4.29496 3.384042,10.81899 -9.950339,7.45722 -13.334379,-3.3618 -10.103153,-12.93829 -16.716191,-5.4655 -6.613038,7.47276 -11.176518,6.94907 -17.243601,-4.86465 -6.067081,-11.8137 -0.201023,-23.61111 -0.201023,-23.61111 z"
       id="path18599"
       sodipodi:nodetypes="cssssssssssssc" />
    <path
       style="fill:#ffccaa;stroke:#000000;stroke-width:0.264583px;stroke-linecap:butt;stroke-linejoin:miter;stroke-opacity:1"
       d="m 22.56394,281.61758 27.017142,-0.0703 -0.387096,-14.62159 13.333381,-16.13854 c 0,0 5.378461,3.25309 -0.227645,0 -5.606103,-3.2531 -17.875752,11.47762 -17.875752,11.47762 0,0 4.11436,-22.29749 0.08602,-23.1105 -4.02834,-0.81301 -3.339116,22.47373 -3.339116,22.47373 0,0 1.984796,-23.13568 -3.457657,-22.51989 -5.442453,0.61579 -2.170478,22.3877 -2.170478,22.3877 0,0 -3.416744,-37.36493 -7.194362,-17.77294 -3.756774,19.48389 0.166799,16.61584 0.166799,16.61584 0,0 -5.777098,-28.95787 -7.708392,-19.68535 -1.931295,9.27252 1.915559,20.82987 1.915559,20.82987 z"
       id="path19691"
       sodipodi:nodetypes="ccccscscscscscc" />
  </g>
</svg>
